<svg xmlns="http://www.w3.org/2000/svg" viewBox="0 0 900 900" role="img" aria-label="Blue learning path illustration">
  <defs>
    <linearGradient id="bg" x1="0" y1="0" x2="1" y2="1">
      <stop offset="0" stop-color="#eef7fc"/>
      <stop offset="0.45" stop-color="#8fc2ef"/>
      <stop offset="1" stop-color="#2e3cb5"/>
    </linearGradient>
    <linearGradient id="card" x1="0" y1="0" x2="1" y2="1">
      <stop offset="0" stop-color="#ffffff" stop-opacity="0.9"/>
      <stop offset="1" stop-color="#d2eaf8" stop-opacity="0.55"/>
    </linearGradient>
    <filter id="shadow" x="-20%" y="-20%" width="140%" height="140%">
      <feDropShadow dx="0" dy="24" stdDeviation="28" flood-color="#0a1628" flood-opacity="0.18"/>
    </filter>
  </defs>
  <rect width="900" height="900" fill="url(#bg)"/>
  <circle cx="190" cy="180" r="86" fill="#ffffff" opacity="0.18"/>
  <circle cx="760" cy="288" r="116" fill="#ffffff" opacity="0.15"/>
  <path d="M0 690 C162 568 280 642 432 544 C588 442 708 484 900 380 L900 900 L0 900 Z" fill="#0a1628" opacity="0.11"/>
  <path d="M0 764 C170 650 324 720 490 616 C642 520 770 574 900 502 L900 900 L0 900 Z" fill="#ffffff" opacity="0.16"/>

  <g filter="url(#shadow)">
    <rect x="196" y="176" width="508" height="416" rx="36" fill="url(#card)" stroke="#ffffff" stroke-opacity="0.78"/>
    <rect x="254" y="244" width="392" height="86" rx="20" fill="#ffffff" opacity="0.72"/>
    <rect x="254" y="368" width="178" height="146" rx="24" fill="#ffffff" opacity="0.68"/>
    <rect x="468" y="368" width="178" height="146" rx="24" fill="#ffffff" opacity="0.56"/>
    <rect x="296" y="276" width="250" height="18" rx="9" fill="#2e3cb5" opacity="0.30"/>
    <rect x="302" y="420" width="86" height="42" rx="21" fill="#2e3cb5" opacity="0.74"/>
    <rect x="512" y="420" width="92" height="42" rx="21" fill="#5d8fe4" opacity="0.72"/>
  </g>

  <g filter="url(#shadow)">
    <path d="M210 694 C300 608 374 734 456 644 C538 552 612 676 700 590" fill="none" stroke="#ffffff" stroke-width="36" stroke-linecap="round" opacity="0.72"/>
    <path d="M210 694 C300 608 374 734 456 644 C538 552 612 676 700 590" fill="none" stroke="#2e3cb5" stroke-width="12" stroke-linecap="round" opacity="0.54"/>
    <circle cx="210" cy="694" r="24" fill="#ffffff"/>
    <circle cx="456" cy="644" r="24" fill="#ffffff"/>
    <circle cx="700" cy="590" r="24" fill="#ffffff"/>
  </g>
</svg>
