<svg xmlns="http://www.w3.org/2000/svg" viewBox="0 0 900 900" role="img" aria-label="Blue study workspace illustration">
  <defs>
    <linearGradient id="bg" x1="0" y1="0" x2="1" y2="1">
      <stop offset="0" stop-color="#d2eaf8"/>
      <stop offset="0.48" stop-color="#82b9ec"/>
      <stop offset="1" stop-color="#2e3cb5"/>
    </linearGradient>
    <linearGradient id="glass" x1="0" y1="0" x2="1" y2="1">
      <stop offset="0" stop-color="#ffffff" stop-opacity="0.86"/>
      <stop offset="1" stop-color="#ffffff" stop-opacity="0.44"/>
    </linearGradient>
    <filter id="shadow" x="-20%" y="-20%" width="140%" height="140%">
      <feDropShadow dx="0" dy="26" stdDeviation="28" flood-color="#0a1628" flood-opacity="0.18"/>
    </filter>
  </defs>
  <rect width="900" height="900" fill="url(#bg)"/>
  <circle cx="735" cy="155" r="94" fill="#ffffff" opacity="0.16"/>
  <circle cx="122" cy="258" r="62" fill="#ffffff" opacity="0.14"/>
  <path d="M0 658 C154 560 246 610 390 526 C552 432 692 460 900 342 L900 900 L0 900 Z" fill="#0a1628" opacity="0.12"/>
  <path d="M0 728 C150 624 314 684 468 594 C624 504 752 548 900 466 L900 900 L0 900 Z" fill="#ffffff" opacity="0.14"/>

  <g filter="url(#shadow)">
    <rect x="188" y="190" width="524" height="352" rx="34" fill="url(#glass)" stroke="#ffffff" stroke-opacity="0.72"/>
    <rect x="238" y="252" width="424" height="210" rx="22" fill="#eef8fd" opacity="0.82"/>
    <rect x="282" y="494" width="336" height="34" rx="17" fill="#2e3cb5" opacity="0.24"/>
    <rect x="358" y="542" width="184" height="32" rx="16" fill="#ffffff" opacity="0.72"/>
  </g>

  <g filter="url(#shadow)">
    <rect x="258" y="604" width="384" height="94" rx="24" fill="#ffffff" opacity="0.78"/>
    <rect x="302" y="632" width="170" height="18" rx="9" fill="#2e3cb5" opacity="0.32"/>
    <rect x="302" y="664" width="258" height="14" rx="7" fill="#2e3cb5" opacity="0.18"/>
  </g>

  <g opacity="0.9">
    <circle cx="326" cy="356" r="38" fill="#2e3cb5" opacity="0.88"/>
    <circle cx="450" cy="356" r="38" fill="#5d8fe4" opacity="0.88"/>
    <circle cx="574" cy="356" r="38" fill="#b2d4eb" opacity="0.92"/>
    <path d="M300 426 C370 386 424 462 492 420 C536 392 584 392 628 426" fill="none" stroke="#2e3cb5" stroke-width="14" stroke-linecap="round" opacity="0.34"/>
  </g>
</svg>
